<svg xmlns="http://www.w3.org/2000/svg" xmlns:xlink="http://www.w3.org/1999/xlink" id="Layer_1" viewBox="0 0 496 496" xml:space="preserve" width="496"  height="496" ><g stroke="#E1E4EF" fill="#294DB6">	<path style="" d="M66.4,418.8c0,5.6-4,9.6-9.6,9.6h-20c-5.6,0-9.6-4-9.6-9.6v-18.4c0-5.6,4-9.6,9.6-9.6h20  c5.6,0,9.6,4,9.6,9.6C66.4,400.4,66.4,418.8,66.4,418.8z" stroke="#E1E4EF" fill="#2C4249"></path>	<path style="" d="M468,418.8c0,5.6-4,9.6-9.6,9.6h-20c-5.6,0-9.6-4-9.6-9.6v-18.4c0-5.6,4-9.6,9.6-9.6h20  c5.6,0,9.6,4,9.6,9.6V418.8z" stroke="#E1E4EF" fill="#2C4249"></path></g><path style="" d="M496,393.2c0,8.8-7.2,15.2-15.2,15.2H15.2c-8.8,0-15.2-7.2-15.2-15.2V99.6c0-8.8,7.2-15.2,15.2-15.2 h465.6c8.8,0,15.2,7.2,15.2,15.2L496,393.2L496,393.2z" stroke="#E1E4EF" fill="#6DA2A5"></path><path style="" d="M496,376.4c0,8.8-7.2,15.2-15.2,15.2H15.2c-8,0-15.2-7.2-15.2-15.2V82.8C0,74,7.2,67.6,15.2,67.6 h465.6c8.8,0,15.2,7.2,15.2,15.2L496,376.4L496,376.4z" stroke="#E1E4EF" fill="#BAE2E8"></path><path style="" d="M496,385.2c0,8.8-7.2,15.2-15.2,15.2H15.2c-8.8,0-15.2-7.2-15.2-15.2V91.6c0-8.8,7.2-15.2,15.2-15.2 h465.6c8.8,0,15.2,7.2,15.2,15.2L496,385.2L496,385.2z" stroke="#E1E4EF" fill="#A3CAD3"></path><path style="" d="M0,91.6c0-8.8,7.2-15.2,15.2-15.2h465.6c8.8,0,15.2,7.2,15.2,15.2v293.6c0,8.8-7.2,15.2-15.2,15.2" stroke="#E1E4EF" fill="#86B5BC"></path><path style="" d="M377.6,368.4c0,7.2-5.6,12.8-12.8,12.8h-320c-7.2,0-12.8-5.6-12.8-12.8V117.2 c0-7.2,5.6-12.8,12.8-12.8h320c7.2,0,12.8,5.6,12.8,12.8V368.4z" stroke="#E1E4EF" fill="#77989E"></path><path style="" d="M377.6,358.8c0,7.2-5.6,12.8-12.8,12.8h-320c-7.2,0-12.8-5.6-12.8-12.8V117.2 c0-7.2,5.6-12.8,12.8-12.8h320c7.2,0,12.8,5.6,12.8,12.8V358.8z" stroke="#E1E4EF" fill="#405963"></path><path style="" d="M32.8,117.2c0-7.2,5.6-12.8,12.8-12.8h320c7.2,0,12.8,5.6,12.8,12.8V358c0,7.2-5.6,12.8-12.8,12.8" stroke="#E1E4EF" fill="#2C4249"></path><rect x="404" y="67.6" style="" width="8" height="333.6" stroke="#E1E4EF" fill="#86B7BC"></rect><rect x="404" y="75.6" style="" width="8" height="324" stroke="#E1E4EF" fill="#6DA2A5"></rect><path style="" d="M482.4,282c0,16-12.8,28.8-28.8,28.8S424.8,298,424.8,282s12.8-30.4,28.8-30.4S482.4,266,482.4,282z" stroke="#E1E4EF" fill="#137D8E"></path><path style="" d="M482.4,282c0,16-12.8,41.6-28.8,41.6s-28.8-26.4-28.8-41.6c0-16,12.8-27.2,28.8-27.2 C469.6,254.8,482.4,266,482.4,282z" stroke="#E1E4EF" fill="#72A2A5"></path><path style="" d="M482.4,282c0,16-12.8,28.8-28.8,28.8S424.8,298,424.8,282s12.8-28.8,28.8-28.8S482.4,266,482.4,282z" stroke="#E1E4EF" fill="#185B6B"></path><path style="" d="M473.6,262c11.2,11.2,11.2,29.6,0,40.8c-11.2,11.2-29.6,11.2-40.8,0" stroke="#E1E4EF" fill="#073B44"></path><path style="" d="M469.6,267.6c0,0.8-0.8,2.4-2.4,2.4c-0.8,0-2.4-0.8-2.4-2.4c0-0.8,0.8-2.4,2.4-2.4 C468.8,266,469.6,266.8,469.6,267.6z" stroke="#E1E4EF" fill="#B8D7E0"></path><path style="" d="M430.4,114v74.4c0,4.8,4,8.8,8.8,8.8h28c4.8,0,8.8-4,8.8-8.8V114c0-4.8-4-8.8-8.8-8.8h-28 C434.4,105.2,430.4,109.2,430.4,114z" stroke="#E1E4EF" fill="#3CA589"></path><path style="" d="M467.2,197.2c4.8,0,8.8-4,8.8-8.8V114c0-4.8-4-8.8-8.8-8.8h-28c-4.8,0-8.8,4-8.8,8.8" stroke="#E1E4EF" fill="#319385"></path><path style="" d="M436.8,228.4c0,2.4-2.4,4.8-4.8,4.8h-5.6c-2.4,0-4.8-2.4-4.8-4.8v-5.6c0-2.4,2.4-4.8,4.8-4.8h5.6 c2.4,0,4.8,2.4,4.8,4.8V228.4z" stroke="#E1E4EF" fill="#72A2A5"></path><path style="" d="M436.8,226c0,2.4-2.4,4.8-4.8,4.8h-5.6c-2.4,0-4.8-2.4-4.8-4.8v-5.6c0-2.4,2.4-4.8,4.8-4.8h5.6 c2.4,0,4.8,2.4,4.8,4.8V226z" stroke="#E1E4EF" fill="#3C5960"></path><path style="" d="M432,216.4c2.4,0,4.8,2.4,4.8,4.8v5.6c0,2.4-2.4,4.8-4.8,4.8h-5.6c-2.4,0-4.8-2.4-4.8-4.8" stroke="#E1E4EF" fill="#334449"></path><path style="" d="M460.8,228.4c0,2.4-2.4,4.8-4.8,4.8h-5.6c-2.4,0-4.8-2.4-4.8-4.8v-5.6c0-2.4,2.4-4.8,4.8-4.8h5.6 c2.4,0,4.8,2.4,4.8,4.8V228.4z" stroke="#E1E4EF" fill="#72A2A5"></path><path style="" d="M460.8,226c0,2.4-2.4,4.8-4.8,4.8h-5.6c-2.4,0-4.8-2.4-4.8-4.8v-5.6c0-2.4,2.4-4.8,4.8-4.8h5.6 c2.4,0,4.8,2.4,4.8,4.8V226z" stroke="#E1E4EF" fill="#3C5960"></path><path style="" d="M456,216.4c2.4,0,4.8,2.4,4.8,4.8v5.6c0,2.4-2.4,4.8-4.8,4.8h-5.6c-2.4,0-4.8-2.4-4.8-4.8" stroke="#E1E4EF" fill="#334449"></path><path style="" d="M484.8,228.4c0,2.4-2.4,4.8-4.8,4.8h-5.6c-2.4,0-4.8-2.4-4.8-4.8v-5.6c0-2.4,2.4-4.8,4.8-4.8h5.6 c2.4,0,4.8,2.4,4.8,4.8V228.4z" stroke="#E1E4EF" fill="#72A2A5"></path><path style="" d="M484.8,226c0,2.4-2.4,4.8-4.8,4.8h-5.6c-2.4,0-4.8-2.4-4.8-4.8v-5.6c0-2.4,2.4-4.8,4.8-4.8h5.6 c2.4,0,4.8,2.4,4.8,4.8V226z" stroke="#E1E4EF" fill="#3C5960"></path><path style="" d="M480,216.4c2.4,0,4.8,2.4,4.8,4.8v5.6c0,2.4-2.4,4.8-4.8,4.8h-5.6c-2.4,0-4.8-2.4-4.8-4.8" stroke="#E1E4EF" fill="#334449"></path><g stroke="#E1E4EF" fill="#294DB6">	<rect x="430.4" y="341.2" style="" width="45.6" height="3.2" stroke="#E1E4EF" fill="#6F9FAA"></rect>	<rect x="430.4" y="350" style="" width="45.6" height="3.2" stroke="#E1E4EF" fill="#6F9FAA"></rect>	<rect x="430.4" y="358" style="" width="45.6" height="3.2" stroke="#E1E4EF" fill="#6F9FAA"></rect></g><path style="" d="M32.8,319.6v39.2c0,7.2,5.6,12.8,12.8,12.8h320c7.2,0,12.8-5.6,12.8-12.8v-39.2H32.8z" stroke="#E1E4EF" fill="#2C4249"></path><path style="" d="M365.6,370.8c7.2,0,12.8-5.6,12.8-12.8v-38.4h-80L365.6,370.8z" stroke="#E1E4EF" fill="#1C2F33"></path></svg>