<svg xmlns:xlink="http://www.w3.org/1999/xlink" xmlns="http://www.w3.org/2000/svg" viewBox="0 0 100 100" width="100"  height="100" ><path fill="#D8D8D8" d="M75.905 26.348a4.49 4.49 0 0 0-1.125-2.978 4.493 4.493 0 0 0-3.381-1.527H28.601a4.5 4.5 0 0 0-4.505 4.505v1.126h51.81v-1.126z" stroke="#E1E4EF"></path><path d="M77.031 28.601H22.969v-2.253a5.638 5.638 0 0 1 5.631-5.632h42.799a5.638 5.638 0 0 1 5.631 5.632v2.253zm-51.81-2.253h49.557a3.383 3.383 0 0 0-3.379-3.379H28.601a3.383 3.383 0 0 0-3.38 3.379z" stroke="#E1E4EF" fill="#294DB6"></path><path fill="#7F7F7F" d="M24.095 27.474h51.81v45.052h-51.81z" stroke="#E1E4EF"></path><path d="M77.031 73.652H22.969V26.348h54.062v47.304zM25.221 71.4h49.557V28.601H25.221V71.4z" stroke="#E1E4EF" fill="#294DB6"></path><path fill="#D8D8D8" d="M24.095 72.526h51.81v12.389h-51.81z" stroke="#E1E4EF"></path><path d="M77.031 86.041H22.969V71.4h54.062v14.641zm-51.81-2.252h49.557V73.652H25.221v10.137z" stroke="#E1E4EF" fill="#294DB6"></path><path d="M44.368 79.284h11.263v2.253H44.368zM70.273 81.536v-2.253h2.252v2.253h-2.252zm-4.505 0v-2.253h2.253v2.253h-2.253zM27.474 30.853h45.052v2.253H27.474zM27.474 35.359h45.052v2.252H27.474zM27.474 39.863h45.052v2.253H27.474zM42.116 44.368h15.769v2.253H42.116zM36.484 53.379h12.389v2.252H36.484zM36.484 57.884h12.389v2.253H36.484zM36.484 62.389h12.389v2.253H36.484zM36.484 66.894h12.389v2.253H36.484zM51.126 53.379h12.389v2.252H51.126zM36.484 48.874h3.379v2.253h-3.379zM60.137 48.874h3.379v2.253h-3.379zM51.126 57.884h12.389v2.253H51.126zM51.126 62.389h12.389v2.253H51.126zM51.126 66.894h12.389v2.253H51.126zM27.474 44.368h6.758v2.253h-6.758zM27.474 48.874h6.758v2.253h-6.758zM27.474 53.379h6.758v2.252h-6.758zM27.474 57.884h6.758v2.253h-6.758zM27.474 62.389h6.758v2.253h-6.758zM27.474 66.894h6.758v2.253h-6.758zM65.768 44.368h6.758v2.253h-6.758zM65.768 48.874h6.758v2.253h-6.758zM65.768 53.379h6.758v2.252h-6.758zM65.768 57.884h6.758v2.253h-6.758zM65.768 62.389h6.758v2.253h-6.758zM65.768 66.894h6.758v2.253h-6.758z" stroke="#E1E4EF" fill="#294DB6"></path><circle cx="50" cy="31.979" r="16.894" fill="#FFFFFF" transform="rotate(-22.5 49.998 31.978)" stroke="#E1E4EF"></circle><path d="M50 50c-9.936 0-18.021-8.084-18.021-18.021 0-9.936 8.084-18.021 18.021-18.021s18.021 8.084 18.021 18.021C68.021 41.916 59.936 50 50 50zm0-33.789c-8.695 0-15.768 7.074-15.768 15.768 0 8.695 7.073 15.768 15.768 15.768s15.768-7.074 15.768-15.768S58.695 16.211 50 16.211z" stroke="#E1E4EF" fill="#294DB6"></path><path fill="#F9A957" d="M59.013 31.017c0-3.82-2.38-7.077-5.735-8.389v7.478a3.278 3.278 0 0 1-6.556 0v-7.478c-3.355 1.312-5.735 4.569-5.735 8.389 0 3.82 2.38 7.077 5.735 8.389v9.145c1.061.208 2.155.323 3.278.323s2.216-.115 3.278-.323v-9.145c3.354-1.312 5.735-4.57 5.735-8.389z" stroke="#E1E4EF"></path><path d="M50 50a18.26 18.26 0 0 1-3.494-.344l-.91-.178v-9.333a10.069 10.069 0 0 1-5.735-9.127c0-4.201 2.532-7.906 6.451-9.438l1.536-.601v9.127c0 1.186.965 2.151 2.152 2.151s2.152-.965 2.152-2.151v-9.127l1.536.601c3.919 1.532 6.451 5.236 6.451 9.438 0 3.939-2.226 7.442-5.735 9.127v9.333l-.91.178A18.26 18.26 0 0 1 50 50zm3.278-1.45h.011-.011zm-5.43-.953c1.443.2 2.86.2 4.303 0v-8.96l.716-.281a7.838 7.838 0 0 0 5.019-7.34 7.82 7.82 0 0 0-3.483-6.539v5.628c0 2.428-1.975 4.404-4.404 4.404s-4.404-1.976-4.404-4.404v-5.628a7.822 7.822 0 0 0-3.483 6.539 7.839 7.839 0 0 0 5.019 7.34l.716.281v8.96z" stroke="#E1E4EF" fill="#294DB6"></path></svg>