<svg xmlns:xlink="http://www.w3.org/1999/xlink" xmlns="http://www.w3.org/2000/svg" viewBox="0 0 100 100" width="100"  height="100" ><path fill="#D6D6D6" d="M79.342 34.215H16.147a1.1 1.1 0 0 0-1.1 1.1v47.41a1.1 1.1 0 0 0 1.1 1.1h63.195a1.1 1.1 0 0 0 1.1-1.1v-47.41a1.1 1.1 0 0 0-1.1-1.1z" stroke="#E1E4EF"></path><path d="M78.187 84.952H17.302a3.386 3.386 0 0 1-3.382-3.382v-45.1a3.386 3.386 0 0 1 3.382-3.382h60.885a3.386 3.386 0 0 1 3.383 3.382v45.1a3.386 3.386 0 0 1-3.383 3.382zm-60.885-49.61c-.621 0-1.127.506-1.127 1.128v45.1a1.13 1.13 0 0 0 1.127 1.128h60.885a1.13 1.13 0 0 0 1.128-1.128v-45.1a1.13 1.13 0 0 0-1.128-1.128H17.302z" stroke="#E1E4EF" fill="#294DB6"></path><path d="M18.43 82.698h2.255v3.382H18.43zM74.805 82.698h2.255v3.382h-2.255z" stroke="#E1E4EF" fill="#294DB6"></path><circle cx="38.725" cy="55.638" r="18.04" fill="#7F7F7F" stroke="#E1E4EF"></circle><path d="M38.725 74.805c-10.569 0-19.168-8.598-19.168-19.167s8.598-19.167 19.168-19.167c10.569 0 19.167 8.599 19.167 19.167 0 10.569-8.598 19.167-19.167 19.167zm0-36.08c-9.326 0-16.913 7.587-16.913 16.913s7.587 16.913 16.913 16.913c9.325 0 16.912-7.587 16.912-16.913S48.05 38.725 38.725 38.725zM61.275 47.745h2.255v32.697h-2.255zM18.43 39.853v-2.255h2.255v2.255H18.43zm0 40.589v-2.255h2.255v2.255H18.43zm56.375 0v-2.255h2.255v2.255h-2.255zM65.785 78.188h6.765v2.255h-6.765zM65.785 73.677H77.06v2.255H65.785zM65.785 69.168H77.06v2.255H65.785zM65.785 64.658H77.06v2.255H65.785zM65.785 60.147H77.06v2.255H65.785z" stroke="#E1E4EF" fill="#294DB6"></path><path fill="#FFFFFF" d="M38.725 55.638s-3.975-10.935-8.402-13.22c-1.014-.523-1.96-.795-2.846-.871a17.93 17.93 0 0 0-6.754 13.083c.576.678 1.345 1.292 2.359 1.815 4.426 2.284 15.643-.807 15.643-.807z" stroke="#E1E4EF"></path><path d="M27.871 58.418c-2.022 0-3.921-.257-5.307-.972-1.097-.567-2.005-1.269-2.701-2.087l-.291-.343.025-.449c.151-2.721.856-5.32 2.096-7.721a19.024 19.024 0 0 1 5.081-6.18l.352-.281.449.039c1.07.093 2.169.427 3.266.993 4.683 2.417 8.522 12.675 8.944 13.836l.417 1.148-1.178.324c-.839.231-6.338 1.693-11.153 1.693zm-5.99-4.196c.463.46 1.039.869 1.718 1.22 2.937 1.517 9.974.291 13.618-.582-1.4-3.478-4.478-9.926-7.411-11.439a6.947 6.947 0 0 0-1.99-.695 16.755 16.755 0 0 0-4.119 5.154 16.738 16.738 0 0 0-1.816 6.342z" stroke="#E1E4EF" fill="#294DB6"></path><path fill="#FFFFFF" d="M51.235 42.654c-.889-.006-1.857.176-2.914.603-4.62 1.863-9.596 12.381-9.596 12.381s10.88 4.122 15.5 2.259c1.058-.427 1.881-.967 2.517-1.588a17.926 17.926 0 0 0-5.507-13.655z" stroke="#E1E4EF"></path><path d="M51.1 59.507c-5.159 0-11.855-2.467-12.775-2.815l-1.142-.433.522-1.104c.529-1.117 5.306-10.972 10.193-12.944a9.368 9.368 0 0 1 3.344-.685l.45.003.324.312a18.994 18.994 0 0 1 4.483 6.626 19.015 19.015 0 0 1 1.369 7.883l-.016.45-.322.315c-.768.75-1.738 1.365-2.883 1.827-.998.403-2.222.565-3.547.565zm-10.802-4.504c3.55 1.209 10.445 3.084 13.505 1.848a6.92 6.92 0 0 0 1.824-1.056 16.74 16.74 0 0 0-1.217-6.484 16.731 16.731 0 0 0-3.622-5.514c-.651.05-1.337.22-2.045.506-3.063 1.235-6.727 7.367-8.445 10.7z" stroke="#E1E4EF" fill="#294DB6"></path><path fill="#FFFFFF" d="M38.725 55.638s-7.893 8.549-7.893 13.53c0 1.141.193 2.106.531 2.929a17.953 17.953 0 0 0 7.361 1.581c2.625 0 5.112-.573 7.361-1.581.338-.822.531-1.787.531-2.929.001-4.982-7.891-13.53-7.891-13.53z" stroke="#E1E4EF"></path><path d="M38.725 74.805c-2.703 0-5.336-.565-7.822-1.68l-.411-.184-.17-.417c-.409-.994-.616-2.123-.616-3.357 0-5.27 7.353-13.386 8.191-14.295l.829-.898.828.898c.839.908 8.192 9.024 8.192 14.295 0 1.234-.207 2.363-.616 3.357l-.171.417-.411.184a19.01 19.01 0 0 1-7.823 1.68zm-6.469-3.551a16.863 16.863 0 0 0 12.937 0 6.918 6.918 0 0 0 .297-2.087c0-3.306-4.317-8.996-6.765-11.834-2.448 2.839-6.765 8.532-6.765 11.834 0 .765.1 1.464.296 2.087z" stroke="#E1E4EF" fill="#294DB6"></path><path fill="#D6D6D6" d="m84.05 65.108-3.608-2.706V81.57h2.255a2.252 2.252 0 0 0 2.255-2.255V66.912c0-.709-.334-1.377-.902-1.804z" stroke="#E1E4EF"></path><path d="M82.697 82.698h-3.382v-22.55l5.413 4.059a3.4 3.4 0 0 1 1.352 2.706v12.403a3.386 3.386 0 0 1-3.383 3.382zm-1.127-2.256h1.127c.622 0 1.128-.506 1.128-1.127V66.912c0-.353-.168-.69-.451-.902l-1.804-1.353v15.785z" stroke="#E1E4EF" fill="#294DB6"></path><path fill="#FFFFFF" d="M24.067 78.188h33.825v5.637H24.067z" stroke="#E1E4EF"></path><path d="M59.02 84.952H22.94V77.06h36.08v7.892zm-33.825-2.254h31.57v-3.382h-31.57v3.382z" stroke="#E1E4EF" fill="#294DB6"></path><path fill="#9BF2FF" d="M66.912 48.873h9.02v5.637h-9.02z" stroke="#E1E4EF"></path><path d="M77.06 55.638H65.785v-7.893H77.06v7.893zm-9.02-2.256h6.765V50H68.04v3.382z" stroke="#E1E4EF" fill="#294DB6"></path><circle cx="38.725" cy="55.638" r="3.383" fill="#9BF2FF" stroke="#E1E4EF"></circle><path d="M38.725 60.147a4.515 4.515 0 0 1-4.51-4.51 4.516 4.516 0 0 1 4.51-4.51 4.516 4.516 0 0 1 4.51 4.51 4.515 4.515 0 0 1-4.51 4.51zm0-6.765a2.257 2.257 0 0 0-2.255 2.255 2.257 2.257 0 0 0 2.255 2.255 2.257 2.257 0 0 0 2.255-2.255 2.257 2.257 0 0 0-2.255-2.255z" stroke="#E1E4EF" fill="#294DB6"></path><path fill="#F96178" d="M39.852 44.246h6.765L50 48.873l3.382-4.627h6.765c1.868 0 3.383-1.566 3.383-3.499v-22.2c0-1.932-1.514-3.499-3.383-3.499H39.852c-1.868 0-3.382 1.567-3.382 3.499v22.2c0 1.933 1.514 3.499 3.382 3.499z" stroke="#E1E4EF"></path><path d="m50 50.783-3.955-5.41h-6.192c-2.486 0-4.51-2.076-4.51-4.627v-22.2c0-2.551 2.024-4.627 4.51-4.627h20.295c2.487 0 4.51 2.076 4.51 4.627v22.2c0 2.551-2.023 4.627-4.51 4.627h-6.192L50 50.783zM39.852 16.175c-1.244 0-2.255 1.064-2.255 2.372v22.2c0 1.307 1.011 2.372 2.255 2.372h7.338L50 46.962l2.81-3.844h7.338c1.244 0 2.255-1.064 2.255-2.372v-22.2c0-1.308-1.011-2.372-2.255-2.372H39.852z" stroke="#E1E4EF" fill="#294DB6"></path><path fill="#FFFFFF" d="M52.255 37.597v-3.812a6.2 6.2 0 0 0 3.946-5.772 6.2 6.2 0 0 0-3.946-5.772v5.208h-4.51v-5.208a6.198 6.198 0 0 0-3.946 5.772 6.2 6.2 0 0 0 3.946 5.772v3.812h4.51z" stroke="#E1E4EF"></path><path d="M53.382 38.725h-2.255v-5.709l.717-.28a5.043 5.043 0 0 0 3.23-4.722 5.034 5.034 0 0 0-1.691-3.782v4.346h-6.765v-4.346a5.036 5.036 0 0 0-1.691 3.782 5.042 5.042 0 0 0 3.23 4.722l.717.28v5.709h-2.255v-4.213a7.277 7.277 0 0 1-3.946-6.498 7.283 7.283 0 0 1 4.663-6.822l1.538-.601v5.732h2.255v-5.732l1.538.601a7.283 7.283 0 0 1 4.663 6.822 7.277 7.277 0 0 1-3.946 6.498v4.213z" stroke="#E1E4EF" fill="#294DB6"></path></svg>