<svg xmlns:xlink="http://www.w3.org/1999/xlink" xmlns="http://www.w3.org/2000/svg" viewBox="0 0 50 50" width="50"  height="50" ><path fill="#4F4D4D" d="M10.5,35.4l0,1.3c0,0.1,0,0.2-0.1,0.2l13.4-7.8c0.1,0,0.1-0.1,0.1-0.2l0-1.3L10.5,35.4z" stroke="#E1E4EF"></path><path fill="#686868" d="M10.5,35.4l0,1.3c0,0.2-0.2,0.3-0.4,0.2l-2.8-1.6C7.1,35.2,7,34.9,7,34.7l0-1.3L10.5,35.4z" stroke="#E1E4EF"></path><path fill="#4F4D4D" d="M31.3,47.4l0,1.3c0,0.1,0,0.2-0.1,0.2l11.7-6.8c0.1,0,0.1-0.1,0.1-0.2l0-1.3L31.3,47.4z" stroke="#E1E4EF"></path><path fill="#686868" d="M31.3,47.4l0,1.3c0,0.2-0.2,0.3-0.4,0.2l-2.8-1.6c-0.2-0.1-0.4-0.4-0.4-0.6l0-1.3L31.3,47.4z" stroke="#E1E4EF"></path><path fill="#BFBFBF" d="M46.2,19.2l-0.1,22.4c0,0.2-0.1,0.4-0.2,0.5l-11.7,6.8c0.1-0.1,0.2-0.2,0.2-0.5L34.5,26L46.2,19.2z" stroke="#E1E4EF"></path><path fill="#E8E8E8" d="M45.5,17.9l-11.7,6.8L4.6,7.9c-0.2-0.1-0.4-0.1-0.5,0L15.8,1C15.9,1,16.1,1,16.3,1.1L45.5,17.9z" stroke="#E1E4EF"></path><path fill="#D7D7D7" d="M33.8,24.7L45.5,18c0.4,0.2,0.7,0.8,0.7,1.3L34.5,26C34.5,25.5,34.2,25,33.8,24.7z" stroke="#E1E4EF"></path><path fill="#D7D7D7" d="M33.8,24.7c0.4,0.2,0.7,0.8,0.7,1.3l-0.1,22.4c0,0.5-0.3,0.6-0.7,0.4l-2.4-1.4l-3.5-2l-17.3-10l-3.5-2   L4.5,32c-0.4-0.2-0.7-0.8-0.7-1.3L3.9,8.3c0-0.5,0.3-0.6,0.7-0.4L33.8,24.7z" stroke="#E1E4EF"></path><polygon fill="#3CBCA1" points="32.4 31.7 32.3 35.5 25.4 31.5 25.4 27.7" stroke="#E1E4EF"></polygon><polygon fill="#BFBFBF" points="32.3 41.8 32.3 42.8 25.4 38.8 25.4 37.8" stroke="#E1E4EF"></polygon><polygon fill="#BFBFBF" points="32.3 43.9 32.3 44.8 25.4 40.8 25.4 39.9" stroke="#E1E4EF"></polygon><polygon fill="#929393" points="24.3 21.3 24.2 41.2 5.6 30.5 5.7 10.6" stroke="#E1E4EF"></polygon><path fill="#3D3D3D" d="M15,17c4.3,2.5,7.8,8.5,7.8,13.5c0,4.9-3.5,6.9-7.8,4.5c-4.3-2.5-7.8-8.5-7.8-13.5  C7.2,16.5,10.7,14.5,15,17z" stroke="#E1E4EF"></path><path fill="#BFBFBF" d="M8.3,21.4c0-3.3,1.5-5.2,3.8-5.5c-2.9-0.3-4.9,1.7-4.9,5.5c0,4.9,3.5,11,7.8,13.5c1.5,0.9,2.8,1.2,4,1   c-0.9-0.1-1.9-0.4-2.9-1C11.7,32.4,8.3,26.4,8.3,21.4z" stroke="#E1E4EF"></path><path fill="#BFBFBF" d="M33.4,25.6c0.1,0,0.1,0.2,0.1,0.2l-0.1,21.6c0,0.1-0.1,0.1-0.1,0.1L4.9,31.1c-0.1,0-0.1-0.1-0.1-0.2  L4.8,9.3c0-0.1,0.1-0.1,0.1-0.1L33.4,25.6z M33.2,47.1l0.1-21.3L5.1,9.6L5,30.8L33.2,47.1" stroke="#E1E4EF"></path><path fill="#686868" d="M24.3,22.9l0-0.3l-1.2-0.7l0-1.3l-0.3-0.2l0,1.3L21.5,21l0-1.3l-0.3-0.2l0,1.3l-1.3-0.8l0-1.3l-0.3-0.2   l0,1.3l-1.3-0.8l0-1.3L18,17.7l0,1.3l-1.3-0.8l0-1.3l-0.3-0.2l0,1.3l-1.3-0.8l0-1.3l-0.3-0.2l0,1.3l-1.3-0.8l0-1.3L13.3,15l0,1.3   l-1.3-0.8l0-1.3l-0.3-0.2l0,1.3l-1.3-0.8l0-1.3l-0.3-0.2l0,1.3l-1.3-0.8l0-1.3l-0.3-0.2l0,1.3l-1.3-0.8l0-1.3l-0.3-0.2l0,1.3   l-1.2-0.7l0,0.3l1.2,0.7l0,1.4l-1.2-0.7l0,0.3l1.2,0.7l0,1.4l-1.2-0.7l0,0.3l1.2,0.7l0,1.4L5.7,17l0,0.3L6.9,18l0,1.4l-1.2-0.7   l0,0.3l1.2,0.7l0,1.4l-1.2-0.7l0,0.3l1.2,0.7l0,1.4l-1.2-0.7l0,0.3l1.2,0.7l0,1.4l-1.2-0.7l0,0.3l1.2,0.7l0,1.4l-1.2-0.7l0,0.3   l1.2,0.7l0,1.4l-1.2-0.7l0,0.3l1.2,0.7l0,1.4l-1.2-0.7l0,0.3l1.2,0.7l0,1.3l0.3,0.2l0-1.3l1.3,0.8l0,1.3l0.3,0.2l0-1.3l1.3,0.8   l0,1.3l0.3,0.2l0-1.3l1.3,0.8l0,1.3l0.3,0.2l0-1.3l1.3,0.8l0,1.3l0.3,0.2l0-1.3l1.3,0.8l0,1.3l0.3,0.2l0-1.3l1.3,0.8l0,1.3   l0.3,0.2l0-1.3l1.3,0.8l0,1.3l0.3,0.2l0-1.3l1.3,0.8l0,1.3l0.3,0.2l0-1.3l1.3,0.8l0,1.3l0.3,0.2l0-1.3l1.3,0.8l0,1.3l0.3,0.2   l0-1.3l1.2,0.7l0-0.3L23,38.9l0-1.4l1.2,0.7l0-0.3L23,37.2l0-1.4l1.2,0.7l0-0.3L23,35.5l0-1.4l1.2,0.7l0-0.3L23,33.8l0-1.4   l1.2,0.7l0-0.3L23,32.1l0-1.4l1.2,0.7l0-0.3L23,30.4l0-1.4l1.2,0.7l0-0.3L23,28.7l0-1.4l1.2,0.7l0-0.3L23,27l0-1.4l1.2,0.7l0-0.3   L23,25.3l0-1.4l1.2,0.7l0-0.3L23,23.6l0-1.4L24.3,22.9z M8.4,30.5l-1.3-0.8l0-1.4l1.3,0.8L8.4,30.5z M8.4,28.8l-1.3-0.8l0-1.4   l1.3,0.8L8.4,28.8z M8.5,27.1l-1.3-0.8l0-1.4l1.3,0.8L8.5,27.1z M8.5,25.4l-1.3-0.8l0-1.4L8.5,24L8.5,25.4z M8.5,23.7L7.2,23   l0-1.4l1.3,0.8L8.5,23.7z M8.5,22l-1.3-0.8l0-1.4l1.3,0.8L8.5,22z M8.5,20.3l-1.3-0.8l0-1.4l1.3,0.8L8.5,20.3z M8.5,18.6l-1.3-0.8   l0-1.4l1.3,0.8L8.5,18.6z M8.5,16.9l-1.3-0.8l0-1.4l1.3,0.8L8.5,16.9z M8.5,15.2l-1.3-0.8l0-1.4l1.3,0.8L8.5,15.2z M10,31.4   l-1.3-0.8l0-1.4L10,30L10,31.4z M10,29.7L8.7,29l0-1.4l1.3,0.8L10,29.7z M10,28l-1.3-0.8l0-1.4l1.3,0.8L10,28z M10,26.3l-1.3-0.8   l0-1.4l1.3,0.8L10,26.3z M10,24.6l-1.3-0.8l0-1.4l1.3,0.8L10,24.6z M10.1,22.9l-1.3-0.8l0-1.4l1.3,0.8L10.1,22.9z M10.1,21.2   l-1.3-0.8l0-1.4l1.3,0.8L10.1,21.2z M10.1,19.5l-1.3-0.8l0-1.4l1.3,0.8L10.1,19.5z M10.1,17.8l-1.3-0.8l0-1.4l1.3,0.8L10.1,17.8z    M10.1,16.1l-1.3-0.8l0-1.4l1.3,0.8L10.1,16.1z M11.6,32.4l-1.3-0.8l0-1.4l1.3,0.8L11.6,32.4z M11.6,30.7l-1.3-0.8l0-1.4l1.3,0.8   L11.6,30.7z M11.6,29l-1.3-0.8l0-1.4l1.3,0.8L11.6,29z M11.6,27.3l-1.3-0.8l0-1.4l1.3,0.8L11.6,27.3z M11.6,25.6l-1.3-0.8l0-1.4   l1.3,0.8L11.6,25.6z M11.6,23.9l-1.3-0.8l0-1.4l1.3,0.8L11.6,23.9z M11.6,22.2l-1.3-0.8l0-1.4l1.3,0.8L11.6,22.2z M11.6,20.5   l-1.3-0.8l0-1.4l1.3,0.8L11.6,20.5z M11.7,18.8L10.3,18l0-1.4l1.3,0.8L11.7,18.8z M11.7,17.1l-1.3-0.8l0-1.4l1.3,0.8L11.7,17.1z    M13.2,33.3l-1.3-0.8l0-1.4l1.3,0.8L13.2,33.3z M13.2,31.6l-1.3-0.8l0-1.4l1.3,0.8L13.2,31.6z M13.2,29.9l-1.3-0.8l0-1.4l1.3,0.8   L13.2,29.9z M13.2,28.2l-1.3-0.8l0-1.4l1.3,0.8L13.2,28.2z M13.2,26.5l-1.3-0.8l0-1.4l1.3,0.8L13.2,26.5z M13.2,24.8L11.9,24   l0-1.4l1.3,0.8L13.2,24.8z M13.2,23.1l-1.3-0.8l0-1.4l1.3,0.8L13.2,23.1z M13.2,21.4l-1.3-0.8l0-1.4l1.3,0.8L13.2,21.4z    M13.2,19.7l-1.3-0.8l0-1.4l1.3,0.8L13.2,19.7z M13.2,18l-1.3-0.8l0-1.4l1.3,0.8L13.2,18z M14.8,34.2l-1.3-0.8l0-1.4l1.3,0.8   L14.8,34.2z M14.8,32.5l-1.3-0.8l0-1.4l1.3,0.8L14.8,32.5z M14.8,30.8L13.5,30l0-1.4l1.3,0.8L14.8,30.8z M14.8,29.1l-1.3-0.8   l0-1.4l1.3,0.8L14.8,29.1z M14.8,27.4l-1.3-0.8l0-1.4l1.3,0.8L14.8,27.4z M14.8,25.7l-1.3-0.8l0-1.4l1.3,0.8L14.8,25.7z M14.8,24   l-1.3-0.8l0-1.4l1.3,0.8L14.8,24z M14.8,22.3l-1.3-0.8l0-1.4l1.3,0.8L14.8,22.3z M14.8,20.6l-1.3-0.8l0-1.4l1.3,0.8L14.8,20.6z    M14.8,18.9l-1.3-0.8l0-1.4l1.3,0.8L14.8,18.9z M16.4,35.1l-1.3-0.8l0-1.4l1.3,0.8L16.4,35.1z M16.4,33.4l-1.3-0.8l0-1.4l1.3,0.8   L16.4,33.4z M16.4,31.7l-1.3-0.8l0-1.4l1.3,0.8L16.4,31.7z M16.4,30l-1.3-0.8l0-1.4l1.3,0.8L16.4,30z M16.4,28.3l-1.3-0.8l0-1.4   l1.3,0.8L16.4,28.3z M16.4,26.6l-1.3-0.8l0-1.4l1.3,0.8L16.4,26.6z M16.4,24.9l-1.3-0.8l0-1.4l1.3,0.8L16.4,24.9z M16.4,23.2   l-1.3-0.8l0-1.4l1.3,0.8L16.4,23.2z M16.4,21.5l-1.3-0.8l0-1.4l1.3,0.8L16.4,21.5z M16.4,19.8L15.1,19l0-1.4l1.3,0.8L16.4,19.8z    M18,36l-1.3-0.8l0-1.4l1.3,0.8L18,36z M18,34.3l-1.3-0.8l0-1.4l1.3,0.8L18,34.3z M18,32.6l-1.3-0.8l0-1.4l1.3,0.8L18,32.6z    M18,30.9l-1.3-0.8l0-1.4l1.3,0.8L18,30.9z M18,29.2l-1.3-0.8l0-1.4l1.3,0.8L18,29.2z M18,27.5l-1.3-0.8l0-1.4l1.3,0.8L18,27.5z    M18,25.8l-1.3-0.8l0-1.4l1.3,0.8L18,25.8z M18,24.1l-1.3-0.8l0-1.4l1.3,0.8L18,24.1z M18,22.4l-1.3-0.8l0-1.4L18,21L18,22.4z    M18,20.7L16.7,20l0-1.4l1.3,0.8L18,20.7z M19.6,36.9l-1.3-0.8l0-1.4l1.3,0.8L19.6,36.9z M19.6,35.2l-1.3-0.8l0-1.4l1.3,0.8   L19.6,35.2z M19.6,33.5l-1.3-0.8l0-1.4l1.3,0.8L19.6,33.5z M19.6,31.8l-1.3-0.8l0-1.4l1.3,0.8L19.6,31.8z M19.6,30.1l-1.3-0.8   l0-1.4l1.3,0.8L19.6,30.1z M19.6,28.4l-1.3-0.8l0-1.4l1.3,0.8L19.6,28.4z M19.6,26.7L18.3,26l0-1.4l1.3,0.8L19.6,26.7z M19.6,25   l-1.3-0.8l0-1.4l1.3,0.8L19.6,25z M19.6,23.3l-1.3-0.8l0-1.4l1.3,0.8L19.6,23.3z M19.6,21.6l-1.3-0.8l0-1.4l1.3,0.8L19.6,21.6z    M21.1,37.9l-1.3-0.8l0-1.4l1.3,0.8L21.1,37.9z M21.1,36.2l-1.3-0.8l0-1.4l1.3,0.8L21.1,36.2z M21.2,34.5l-1.3-0.8l0-1.4l1.3,0.8   L21.2,34.5z M21.2,32.8L19.8,32l0-1.4l1.3,0.8L21.2,32.8z M21.2,31.1l-1.3-0.8l0-1.4l1.3,0.8L21.2,31.1z M21.2,29.4l-1.3-0.8   l0-1.4l1.3,0.8L21.2,29.4z M21.2,27.7l-1.3-0.8l0-1.4l1.3,0.8L21.2,27.7z M21.2,26l-1.3-0.8l0-1.4l1.3,0.8L21.2,26z M21.2,24.3   l-1.3-0.8l0-1.4l1.3,0.8L21.2,24.3z M21.2,22.6l-1.3-0.8l0-1.4l1.3,0.8L21.2,22.6z M22.7,38.8L21.4,38l0-1.4l1.3,0.8L22.7,38.8z    M22.7,37.1l-1.3-0.8l0-1.4l1.3,0.8L22.7,37.1z M22.7,35.4l-1.3-0.8l0-1.4l1.3,0.8L22.7,35.4z M22.7,33.7l-1.3-0.8l0-1.4l1.3,0.8   L22.7,33.7z M22.7,32l-1.3-0.8l0-1.4l1.3,0.8L22.7,32z M22.8,30.3l-1.3-0.8l0-1.4l1.3,0.8L22.8,30.3z M22.8,28.6l-1.3-0.8l0-1.4   l1.3,0.8L22.8,28.6z M22.8,26.9l-1.3-0.8l0-1.4l1.3,0.8L22.8,26.9z M22.8,25.2l-1.3-0.8l0-1.4l1.3,0.8L22.8,25.2z M22.8,23.5   l-1.3-0.8l0-1.4l1.3,0.8L22.8,23.5z" stroke="#E1E4EF"></path></svg>